<svg xmlns="http://www.w3.org/2000/svg" version="1.1" xmlns:xlink="http://www.w3.org/1999/xlink" xmlns:svgjs="http://svgjs.dev/svgjs" width="128" height="128" viewBox="0 0 128 128"><g transform="matrix(0.8046875,0,0,0.8046875,12.760752631578946,32.67309410046411)"><svg viewBox="0 0 95 58" data-background-color="#111111" preserveAspectRatio="xMidYMid meet" height="78" width="128" xmlns="http://www.w3.org/2000/svg" xmlns:xlink="http://www.w3.org/1999/xlink"><g id="tight-bounds" transform="matrix(1,0,0,1,-0.24049999999999727,-0.05166176273905876)"><svg viewBox="0 0 95.48100000000001 58.103323525478125" height="58.103323525478125" width="95.48100000000001"><g><svg viewBox="0 0 95.48100000000001 58.103323525478125" height="58.103323525478125" width="95.48100000000001"><g><svg viewBox="0 0 95.48100000000001 58.103323525478125" height="58.103323525478125" width="95.48100000000001"><g id="textblocktransform"><svg viewBox="0 0 95.48100000000001 58.103323525478125" height="58.103323525478125" width="95.48100000000001" id="textblock"><g><svg viewBox="0 0 95.48100000000001 58.103323525478125" height="58.103323525478125" width="95.48100000000001"><g><svg viewBox="0 0 95.48100000000001 58.103323525478125" height="58.103323525478125" width="95.48100000000001"><g><svg xmlns="http://www.w3.org/2000/svg" xmlns:xlink="http://www.w3.org/1999/xlink" version="1.1" x="0" y="0" viewBox="12.615000000000002 27.25 74.77000000000001 45.5" enable-background="new 0 0 100 100" xml:space="preserve" height="58.103323525478125" width="95.48100000000001" class="icon-icon-0" data-fill-palette-color="accent" id="icon-0"><g fill="#f4a424" data-fill-palette-color="accent"><path fill="#f4a424" d="M35.551 64.875c0 4.35-3.531 7.875-7.889 7.875-4.356 0-7.889-3.525-7.889-7.875S23.306 57 27.662 57C32.02 57 35.551 60.525 35.551 64.875zM87.385 53.58v8.46c0 1.56-1.271 2.83-2.83 2.83h-1.3c0-5.65-4.59-10.23-10.24-10.23s-10.24 4.58-10.24 10.23H37.915c0-5.65-4.59-10.23-10.25-10.23-5.67 0-10.26 4.58-10.26 10.23h-1.95c-1.561 0-2.84-1.271-2.84-2.83V50.58h36.149V28.67c0-0.72 0.54-1.32 1.24-1.4 0.06-0.02 0.12-0.02 0.18-0.02h12.561c1.56 0 3.439 1.12 4.18 2.49l7.51 13.91c0.74 1.37 2.53 2.96 3.98 3.541l6.34 2.52C86.205 50.28 87.385 52.03 87.385 53.58zM70.495 46.02l-7.03-12.78c-0.38-0.68-1.32-1.24-2.101-1.24h-6.6c-0.78 0-1.42 0.64-1.42 1.42v12.42c0 0.78 0.64 1.42 1.42 1.42h15C70.545 47.26 70.875 46.7 70.495 46.02zM50.005 27.25v0.02c0.06-0.02 0.12-0.02 0.18-0.02H50.005zM73.015 57c-4.35 0-7.875 3.525-7.875 7.875s3.525 7.875 7.875 7.875 7.875-3.525 7.875-7.875S77.364 57 73.015 57zM16.935 32.57V47.19l12.79-7.3L16.935 32.57zM31.745 41.05l-12.91 7.37h25.77L31.745 41.05zM18.945 31.42l12.79 7.33 12.85-7.33H18.945zM33.755 39.9l12.84 7.36V32.58L33.755 39.9z" data-fill-palette-color="accent"></path></g></svg></g></svg></g></svg></g></svg></g></svg></g></svg></g><defs></defs></svg><rect width="95.48100000000001" height="58.103323525478125" fill="none" stroke="none" visibility="hidden"></rect></g></svg></g></svg>